<svg width="28" height="28" viewBox="0 0 28 28" fill="none" xmlns="http://www.w3.org/2000/svg">
<rect width="27.38" height="27.38" rx="13.69" fill="#F82121"/>
<path d="M9.80351 19.6899V12.2674H7.3366V19.6899H9.80351ZM8.57053 11.2546C9.43048 11.2546 9.96582 10.6851 9.96582 9.97228C9.94968 9.24426 9.43049 8.68994 8.58667 8.68994C7.7419 8.68994 7.19043 9.24426 7.19043 9.97228C7.19043 10.6842 7.72576 11.2546 8.55345 11.2546H8.57053ZM11.1694 19.6899H13.6363V15.5458C13.6363 15.3247 13.6524 15.1026 13.7179 14.9441C13.8964 14.5008 14.3017 14.0414 14.9841 14.0414C15.8763 14.0414 16.2342 14.722 16.2342 15.7195V19.6899H18.7011V15.4338C18.7011 13.1539 17.4842 12.0937 15.8612 12.0937C14.5304 12.0937 13.9457 12.8378 13.6211 13.3438H13.6372V12.2674H11.1703C11.2016 12.9641 11.1694 19.6899 11.1694 19.6899Z" fill="white"/>
</svg>
